{
    "asset" : {
        "generator" : "Khronos glTF Blender I/O v1.5.17",
        "version" : "2.0"
    },
    "scene" : 0,
    "scenes" : [
        {
            "name" : "Scene",
            "nodes" : [
                0
            ]
        }
    ],
    "nodes" : [
        {
            "mesh" : 0,
            "name" : "rp_eric_rigged_001_geo",
            "rotation" : [
                0,
                -0.7280467748641968,
                0,
                0.685527503490448
            ],
            "translation" : [
                1.9688355922698975,
                -1.944664478302002,
                -21.470232009887695
            ]
        }
    ],
    "materials" : [
        {
            "doubleSided" : true,
            "name" : "Material.001",
            "pbrMetallicRoughness" : {
                "baseColorFactor" : [
                    0.800000011920929,
                    0.800000011920929,
                    0.800000011920929,
                    1
                ],
                "metallicFactor" : 0,
                "roughnessFactor" : 0.5
            }
        }
    ],
    "meshes" : [
        {
            "name" : "Malla.004",
            "primitives" : [
                {
                    "attributes" : {
                        "POSITION" : 0,
                        "NORMAL" : 1,
                        "TEXCOORD_0" : 2
                    },
                    "indices" : 3,
                    "material" : 0
                }
            ]
        }
    ],
    "accessors" : [
        {
            "bufferView" : 0,
            "componentType" : 5126,
            "count" : 11433,
            "max" : [
                57.48814010620117,
                183.14962768554688,
                41.126434326171875
            ],
            "min" : [
                -73.45475006103516,
                -3.202589988708496,
                5.86436653137207
            ],
            "type" : "VEC3"
        },
        {
            "bufferView" : 1,
            "componentType" : 5126,
            "count" : 11433,
            "type" : "VEC3"
        },
        {
            "bufferView" : 2,
            "componentType" : 5126,
            "count" : 11433,
            "type" : "VEC2"
        },
        {
            "bufferView" : 3,
            "componentType" : 5123,
            "count" : 61626,
            "type" : "SCALAR"
        }
    ],
    "bufferViews" : [
        {
            "buffer" : 0,
            "byteLength" : 137196,
            "byteOffset" : 0
        },
        {
            "buffer" : 0,
            "byteLength" : 137196,
            "byteOffset" : 137196
        },
        {
            "buffer" : 0,
            "byteLength" : 91464,
            "byteOffset" : 274392
        },
        {
            "buffer" : 0,
            "byteLength" : 123252,
            "byteOffset" : 365856
        }
    ],
    "buffers" : [
        {
            "byteLength" : 489108,
            "uri" : "data:application/octet-stream;base64,"
        }
    ]
}
