{
    "asset" : {
        "generator" : "Khronos glTF Blender I/O v1.5.17",
        "version" : "2.0"
    },
    "scene" : 0,
    "scenes" : [
        {
            "name" : "Scene",
            "nodes" : [
                0
            ]
        }
    ],
    "nodes" : [
        {
            "mesh" : 0,
            "name" : "rp_alison_rigged_001_geo.002",
            "rotation" : [
                0,
                0.6959439516067505,
                0,
                0.718096137046814
            ],
            "scale" : [
                0.9737266898155212,
                0.9183879494667053,
                0.9699090123176575
            ],
            "translation" : [
                -132.6300048828125,
                5.8323187828063965,
                154.7513427734375
            ]
        }
    ],
    "materials" : [
        {
            "doubleSided" : true,
            "name" : "rp_alison_rigged_001_mat.002",
            "pbrMetallicRoughness" : {
                "baseColorFactor" : [
                    1,
                    1,
                    1,
                    1
                ],
                "metallicFactor" : 0,
                "roughnessFactor" : 0.858578622341156
            }
        }
    ],
    "meshes" : [
        {
            "name" : "Malla.002",
            "primitives" : [
                {
                    "attributes" : {
                        "POSITION" : 0,
                        "NORMAL" : 1,
                        "TEXCOORD_0" : 2
                    },
                    "indices" : 3,
                    "material" : 0
                }
            ]
        }
    ],
    "accessors" : [
        {
            "bufferView" : 0,
            "componentType" : 5126,
            "count" : 10224,
            "max" : [
                190.91847229003906,
                188.94622802734375,
                90.28202056884766
            ],
            "min" : [
                55.50185775756836,
                4.010907173156738,
                56.03676986694336
            ],
            "type" : "VEC3"
        },
        {
            "bufferView" : 1,
            "componentType" : 5126,
            "count" : 10224,
            "type" : "VEC3"
        },
        {
            "bufferView" : 2,
            "componentType" : 5126,
            "count" : 10224,
            "type" : "VEC2"
        },
        {
            "bufferView" : 3,
            "componentType" : 5123,
            "count" : 54594,
            "type" : "SCALAR"
        }
    ],
    "bufferViews" : [
        {
            "buffer" : 0,
            "byteLength" : 122688,
            "byteOffset" : 0
        },
        {
            "buffer" : 0,
            "byteLength" : 122688,
            "byteOffset" : 122688
        },
        {
            "buffer" : 0,
            "byteLength" : 81792,
            "byteOffset" : 245376
        },
        {
            "buffer" : 0,
            "byteLength" : 109188,
            "byteOffset" : 327168
        }
    ],
    "buffers" : [
        {
            "byteLength" : 436356,
            "uri" : "data:application/octet-stream;base64,"
        }
    ]
}
